<?xml version="1.0" encoding="UTF-8" standalone="no"?>
<!-- Uploaded to: SVG Repo, www.svgrepo.com, Generator: SVG Repo Mixer Tools -->

<svg
   width="800px"
   height="800px"
   viewBox="0 0 24 24"
   fill="none"
   version="1.1"
   id="svg1"
   sodipodi:docname="single-finger-click.svg"
   inkscape:version="1.4.2 (f4327f4, 2025-05-13)"
   xmlns:inkscape="http://www.inkscape.org/namespaces/inkscape"
   xmlns:sodipodi="http://sodipodi.sourceforge.net/DTD/sodipodi-0.dtd"
   xmlns="http://www.w3.org/2000/svg"
   xmlns:svg="http://www.w3.org/2000/svg">
  <defs
     id="defs1" />
  <sodipodi:namedview
     id="namedview1"
     pagecolor="#ffffff"
     bordercolor="#111111"
     borderopacity="1"
     inkscape:showpageshadow="0"
     inkscape:pageopacity="0"
     inkscape:pagecheckerboard="1"
     inkscape:deskcolor="#d1d1d1"
     inkscape:zoom="1.45875"
     inkscape:cx="413.36761"
     inkscape:cy="400.68552"
     inkscape:window-width="2560"
     inkscape:window-height="1369"
     inkscape:window-x="-8"
     inkscape:window-y="-8"
     inkscape:window-maximized="1"
     inkscape:current-layer="svg1" />
  <path
     d="M 6,6.5 C 6,4.01472 8.01472,2 10.5,2 12.9853,2 15,4.01472 15,6.5 m -3,4.8333 V 6.50001 C 12,5.67158 11.3285,5 10.5,5 V 5 C 9.6716,5 9.00003,5.67158 9.00003,6.50001 V 15.9412 L 7.08296,14.7007 c -0.6122,-0.3961 -1.42581,-0.257 -1.87166,0.32 v 0 c -0.41249,0.5338 -0.38649,1.2856 0.06187,1.7897 L 9.00003,21 H 17 c 0.1588,-1.4291 0.4433,-3.84 0.6684,-5.7299 0.186,-1.562 -0.8642,-3.0026 -2.4083,-3.3029 z"
     stroke="#000000"
     stroke-width="2"
     stroke-linecap="round"
     stroke-linejoin="round"
     id="path1"
     sodipodi:nodetypes="csccssssccsscccccc"
     style="display:inline;stroke-width:0.462;stroke-dasharray:none" />
  <path
     d="m 7.0930627,7.2173486 c 0,-2.1298832 1.5211676,-3.8945684 3.3967573,-3.8564967 2.239692,0.045462 3.421918,1.7297585 3.396758,3.8564967"
     style="display:inline;stroke:#000000;stroke-width:0.482578;stroke-linecap:round;stroke-linejoin:round;stroke-dasharray:none"
     id="path1-5"
     sodipodi:nodetypes="csc" />
</svg>
